<svg xmlns="http://www.w3.org/2000/svg" version="1.1" xmlns:xlink="http://www.w3.org/1999/xlink" width="200" height="200"><svg xmlns="http://www.w3.org/2000/svg" version="1.1" xmlns:xlink="http://www.w3.org/1999/xlink" viewBox="0 0 200 200"><rect width="200" height="200" fill="url('#gradient')"></rect><defs><linearGradient id="SvgjsLinearGradient1001" gradientTransform="rotate(45 0.5 0.5)"><stop offset="0%" stop-color="#dbdce6"></stop><stop offset="100%" stop-color="#0d35e0"></stop></linearGradient></defs><g><g fill="#dedede" transform="matrix(1.5997222704391598,0,0,1.5997222704391598,8.283938835880207,111.8402883224739)" stroke="#000000" stroke-width="0.2"><path d="M8.87 0L6.36-5.02L4.50-5.02L4.50 0L1.07 0L1.07-14.22L6.67-14.22Q9.20-14.22 10.63-13.10Q12.05-11.97 12.05-9.92L12.05-9.92Q12.05-8.44 11.45-7.46Q10.85-6.48 9.57-5.88L9.57-5.88L12.54-0.15L12.54 0L8.87 0ZM4.50-11.57L4.50-7.67L6.67-7.67Q7.65-7.67 8.14-8.18Q8.63-8.69 8.63-9.61Q8.63-10.53 8.13-11.05Q7.64-11.57 6.67-11.57L6.67-11.57L4.50-11.57ZM13.56-4.82L13.55-5.38Q13.55-6.96 14.17-8.20Q14.79-9.43 15.94-10.10Q17.09-10.76 18.64-10.76L18.64-10.76Q21.02-10.76 22.38-9.29Q23.75-7.82 23.75-5.29L23.75-5.29L23.75-5.18Q23.75-2.71 22.38-1.25Q21.01 0.20 18.66 0.20L18.66 0.20Q16.41 0.20 15.04-1.16Q13.67-2.51 13.56-4.82L13.56-4.82ZM16.86-5.77L16.85-5.18Q16.85-3.71 17.30-3.03Q17.76-2.34 18.66-2.34L18.66-2.34Q20.42-2.34 20.46-5.05L20.46-5.05L20.46-5.38Q20.46-8.22 18.64-8.22L18.64-8.22Q16.99-8.22 16.86-5.77L16.86-5.77ZM35.01-5.36L35.01-5.20Q35.01-2.60 33.94-1.20Q32.86 0.20 30.91 0.20L30.91 0.20Q29.30 0.20 28.31-1.08L28.31-1.08L28.17 0L25.22 0L25.22-15L28.52-15L28.52-9.72Q29.43-10.76 30.89-10.76L30.89-10.76Q32.86-10.76 33.94-9.35Q35.01-7.93 35.01-5.36L35.01-5.36ZM31.71-5.40L31.71-5.40Q31.71-6.92 31.30-7.57Q30.90-8.22 30.06-8.22L30.06-8.22Q28.95-8.22 28.52-7.37L28.52-7.37L28.52-3.17Q28.94-2.33 30.08-2.33L30.08-2.33Q31.24-2.33 31.55-3.47L31.55-3.47Q31.71-4.02 31.71-5.40ZM36.05-4.82L36.04-5.38Q36.04-6.96 36.66-8.20Q37.28-9.43 38.43-10.10Q39.58-10.76 41.13-10.76L41.13-10.76Q43.51-10.76 44.87-9.29Q46.24-7.82 46.24-5.29L46.24-5.29L46.24-5.18Q46.24-2.71 44.87-1.25Q43.50 0.20 41.15 0.20L41.15 0.20Q38.90 0.20 37.53-1.16Q36.16-2.51 36.05-4.82L36.05-4.82ZM39.35-5.77L39.34-5.18Q39.34-3.71 39.79-3.03Q40.25-2.34 41.15-2.34L41.15-2.34Q42.91-2.34 42.95-5.05L42.95-5.05L42.95-5.38Q42.95-8.22 41.13-8.22L41.13-8.22Q39.48-8.22 39.35-5.77L39.35-5.77ZM56.80-8.30L56.80-5.66L51.27-5.66L51.27 0L47.84 0L47.84-14.22L57.35-14.22L57.35-11.57L51.27-11.57L51.27-8.30L56.80-8.30ZM64.82-10.64L64.77-7.59L63.68-7.67Q62.13-7.67 61.69-6.69L61.69-6.69L61.69 0L58.40 0L58.40-10.57L61.48-10.57L61.59-9.21Q62.42-10.76 63.91-10.76L63.91-10.76Q64.43-10.76 64.82-10.64L64.82-10.64ZM69.42-10.57L69.42 0L66.12 0L66.12-10.57L69.42-10.57ZM65.93-13.29L65.93-13.29Q65.93-13.99 66.44-14.44Q66.94-14.89 67.75-14.89Q68.56-14.89 69.07-14.44Q69.58-13.99 69.58-13.29Q69.58-12.59 69.07-12.14Q68.56-11.69 67.75-11.69Q66.94-11.69 66.44-12.14Q65.93-12.59 65.93-13.29ZM76.56 0.20L76.56 0.20Q74.13 0.20 72.63-1.25Q71.12-2.71 71.12-5.03L71.12-5.03L71.12-5.30Q71.12-6.92 71.72-8.16Q72.32-9.40 73.48-10.08Q74.63-10.76 76.21-10.76L76.21-10.76Q78.44-10.76 79.73-9.38Q81.02-8.00 81.02-5.53L81.02-5.53L81.02-4.25L74.47-4.25Q74.65-3.36 75.24-2.85Q75.84-2.34 76.79-2.34L76.79-2.34Q78.35-2.34 79.23-3.44L79.23-3.44L80.73-1.66Q80.12-0.81 78.99-0.31Q77.86 0.20 76.56 0.20ZM76.19-8.22L76.19-8.22Q74.75-8.22 74.47-6.31L74.47-6.31L77.79-6.31L77.79-6.56Q77.81-7.35 77.39-7.79Q76.97-8.22 76.19-8.22ZM82.28-10.57L85.36-10.57L85.47-9.33Q86.56-10.76 88.49-10.76L88.49-10.76Q90.14-10.76 90.95-9.78Q91.77-8.79 91.80-6.81L91.80-6.81L91.80 0L88.50 0L88.50-6.67Q88.50-7.47 88.17-7.85Q87.85-8.22 87.00-8.22L87.00-8.22Q86.04-8.22 85.57-7.46L85.57-7.46L85.57 0L82.28 0L82.28-10.57ZM93.20-5.36L93.20-5.36Q93.20-7.87 94.29-9.32Q95.37-10.76 97.31-10.76L97.31-10.76Q98.73-10.76 99.70-9.65L99.70-9.65L99.70-15L103.00-15L103.00 0L100.04 0L99.87-1.13Q98.86 0.20 97.29 0.20L97.29 0.20Q95.41 0.20 94.31-1.25Q93.20-2.70 93.20-5.36ZM96.50-5.76L96.49-5.16Q96.49-2.34 98.13-2.34L98.13-2.34Q99.23-2.34 99.70-3.26L99.70-3.26L99.70-7.29Q99.25-8.22 98.15-8.22L98.15-8.22Q96.63-8.22 96.50-5.76L96.50-5.76ZM110.40-2.97L110.40-2.97Q110.40-3.39 109.96-3.64Q109.52-3.90 108.29-4.17Q107.06-4.44 106.26-4.89Q105.46-5.33 105.04-5.97Q104.62-6.60 104.62-7.42L104.62-7.42Q104.62-8.88 105.82-9.82Q107.02-10.76 108.96-10.76L108.96-10.76Q111.05-10.76 112.32-9.81Q113.59-8.87 113.59-7.32L113.59-7.32L110.29-7.32Q110.29-8.59 108.96-8.59L108.96-8.59Q108.44-8.59 108.09-8.31Q107.73-8.02 107.73-7.59L107.73-7.59Q107.73-7.15 108.16-6.88Q108.59-6.60 109.54-6.43Q110.48-6.25 111.19-6.01L111.19-6.01Q113.57-5.19 113.57-3.07L113.57-3.07Q113.57-1.62 112.29-0.71Q111.01 0.20 108.96 0.20L108.96 0.20Q107.61 0.20 106.54-0.29Q105.48-0.78 104.88-1.62Q104.29-2.46 104.29-3.39L104.29-3.39L107.36-3.39Q107.38-2.66 107.85-2.32Q108.32-1.98 109.05-1.98L109.05-1.98Q109.73-1.98 110.06-2.26Q110.40-2.53 110.40-2.97Z"></path></g></g></svg><style>@media (prefers-color-scheme: light) { :root { filter: none; } }
@media (prefers-color-scheme: dark) { :root { filter: none; } }
</style></svg>